<svg xmlns="http://www.w3.org/2000/svg" width="324.267" height="512" viewBox="0 0 324.267 512">
  <g id="hourglass" transform="translate(-93.867)">
    <g id="Group_2" data-name="Group 2">
      <g id="Group_1" data-name="Group 1">
        <path id="Path_1" data-name="Path 1" d="M392.533,0H119.467a25.6,25.6,0,0,0,0,51.2H392.534a25.6,25.6,0,1,0,0-51.2Zm0,34.133H119.467a8.533,8.533,0,0,1,0-17.066H392.534a8.533,8.533,0,1,1,0,17.066Z" fill="#9070ff"/>
      </g>
    </g>
    <g id="Group_4" data-name="Group 4">
      <g id="Group_3" data-name="Group 3">
        <path id="Path_2" data-name="Path 2" d="M392.533,460.8H119.467a25.6,25.6,0,0,0,0,51.2H392.534a25.6,25.6,0,1,0,0-51.2Zm0,34.133H119.467a8.533,8.533,0,1,1,0-17.066H392.534a8.533,8.533,0,1,1,0,17.066Z" fill="#9070ff"/>
      </g>
    </g>
    <g id="Group_6" data-name="Group 6">
      <g id="Group_5" data-name="Group 5">
        <path id="Path_3" data-name="Path 3" d="M316.809,224.324A227.9,227.9,0,0,0,384,62.114V42.667a8.531,8.531,0,0,0-8.533-8.533H136.533A8.531,8.531,0,0,0,128,42.667V62.114a227.909,227.909,0,0,0,67.183,162.21l8.576,8.576a32.664,32.664,0,0,1,.008,46.2l-8.576,8.576A227.884,227.884,0,0,0,128,449.886v19.447a8.531,8.531,0,0,0,8.533,8.533H375.466A8.531,8.531,0,0,0,384,469.333V449.886a227.9,227.9,0,0,0-67.191-162.21l-8.576-8.576a32.674,32.674,0,0,1,0-46.2Zm-20.643-3.49a49.733,49.733,0,0,0,0,70.332l8.576,8.576a210.947,210.947,0,0,1,62.191,150.144V460.8H145.067V449.886a210.962,210.962,0,0,1,62.182-150.144l8.576-8.576a49.722,49.722,0,0,0,.009-70.332l-8.576-8.576A210.948,210.948,0,0,1,145.067,62.114V51.2H366.934V62.114a210.947,210.947,0,0,1-62.191,150.144Z" fill="#9070ff"/>
      </g>
    </g>
    <g id="Group_8" data-name="Group 8">
      <g id="Group_7" data-name="Group 7">
        <path id="Path_4" data-name="Path 4" d="M328.115,143.761c-.862-2.167-3.8-7.228-12.382-7.228-44.339,0-64.094-9.5-71.928-15.164a36.473,36.473,0,0,0-33.562-4.941A33.636,33.636,0,0,0,188.671,139.6a27.838,27.838,0,0,0-.9,4.685,9.01,9.01,0,0,0,1.067,4.975c8,14.174,17.22,29.124,30.5,42.4l8.567,8.576a66.3,66.3,0,0,1,19.567,47.232,8.533,8.533,0,1,0,17.066,0,66.361,66.361,0,0,1,19.558-47.232l8.585-8.585c2.108-2.1,4.855-4.693,7.876-7.526C322.611,163.379,331.887,153.284,328.115,143.761Zm-39.27,27.93c-3.157,2.978-6.042,5.692-8.243,7.893l-8.585,8.585a83.831,83.831,0,0,0-16.026,22.34,83.787,83.787,0,0,0-16.026-22.34l-8.568-8.576c-10.479-10.487-18.15-22.033-26.129-35.951a16.677,16.677,0,0,1,10.667-11.128,19.414,19.414,0,0,1,17.86,2.68c10.871,7.868,32.307,17.143,73.37,18.287C301.892,159.42,293.615,167.211,288.845,171.691Z" fill="#9070ff"/>
      </g>
    </g>
    <g id="Group_10" data-name="Group 10">
      <g id="Group_9" data-name="Group 9">
        <path id="Path_5" data-name="Path 5" d="M349.278,434.534c-2.142-27.665-13.235-39.151-26.069-52.463-1.732-1.8-3.541-3.669-5.393-5.649A57.1,57.1,0,0,0,276.267,358.4H235.725a57.118,57.118,0,0,0-41.549,18.022c-1.852,1.98-3.652,3.84-5.385,5.641-12.843,13.312-23.936,24.806-26.069,52.48a8.523,8.523,0,0,0,8.507,9.191h169.54a8.538,8.538,0,0,0,8.509-9.2Zm-168.329-7.867c2.893-14.9,9.788-22.033,20.13-32.751,1.792-1.86,3.652-3.8,5.564-5.837a39.944,39.944,0,0,1,29.082-12.612h40.542a40,40,0,0,1,29.09,12.6c1.92,2.065,3.78,3.985,5.581,5.854,10.334,10.718,17.22,17.852,20.122,32.742Z" fill="#9070ff"/>
      </g>
    </g>
    <g id="Group_12" data-name="Group 12">
      <g id="Group_11" data-name="Group 11">
        <path id="Path_6" data-name="Path 6" d="M255.744,273.067a8.531,8.531,0,0,0-8.533,8.533v8.533a8.533,8.533,0,0,0,17.066,0V281.6A8.531,8.531,0,0,0,255.744,273.067Z" fill="#9070ff"/>
      </g>
    </g>
    <g id="Group_14" data-name="Group 14">
      <g id="Group_13" data-name="Group 13">
        <path id="Path_7" data-name="Path 7" d="M255.744,315.733a8.531,8.531,0,0,0-8.533,8.533V332.8a8.533,8.533,0,0,0,17.066,0v-8.533A8.531,8.531,0,0,0,255.744,315.733Z" fill="#9070ff"/>
      </g>
    </g>
  </g>
</svg>
